<svg xmlns="http://www.w3.org/2000/svg" viewBox="0 0 296.96 346.85"><defs><style>.cls-1{isolation:isolate;}.cls-2{fill:none;}.cls-3{fill:#fff;}.cls-4{opacity:0.75;mix-blend-mode:multiply;}.cls-5{fill:#e73f11;}.cls-6{fill:#ce9fc9;}</style></defs><g class="cls-1"><g id="Layer_1" data-name="Layer 1"><polygon class="cls-2" points="195.74 250.89 194.94 250.89 196.18 252.06 195.74 250.89"/><polygon class="cls-3" points="0 346.85 64.97 346.85 125.83 185.77 74.85 137.74 0 346.85"/><g class="cls-4"><polygon class="cls-3" points="124.16 0 74.85 137.74 125.83 185.77 196 0 124.16 0"/></g><polygon class="cls-5" points="124.16 0 74.85 137.74 125.83 185.77 196 0 124.16 0"/><polygon class="cls-6" points="262.89 191.92 262.49 191.92 262.89 193.03 262.89 191.92"/><polygon class="cls-5" points="196.18 252.06 296.77 346.85 296.96 346.85 241.9 193.03 241.5 191.92 173.46 191.92 132.35 191.92 194.94 250.89 195.74 250.89 196.18 252.06"/><polygon class="cls-3" points="231.99 346.85 296.77 346.85 196.18 252.06 231.99 346.85"/><polygon class="cls-3" points="132.25 191.92 110.31 250.01 110.31 250.89 195.29 250.89 132.7 191.92 132.25 191.92"/></g></g></svg>